<?xml version="1.0" encoding="UTF-8"?>
<svg width="15px" height="12px" viewBox="0 0 15 12" version="1.1" xmlns="http://www.w3.org/2000/svg" xmlns:xlink="http://www.w3.org/1999/xlink">
    <!-- Generator: Sketch 52.1 (67048) - http://www.bohemiancoding.com/sketch -->
    <title>Shape</title>
    <desc>Created with Sketch.</desc>
    <g id="Design-desktop" stroke="none" stroke-width="1" fill="none" fill-rule="evenodd">
        <g id="Login" transform="translate(-615.000000, -538.000000)" fill="#FFFFFF" fill-rule="nonzero">
            <g id="Modal" transform="translate(383.000000, 69.000000)">
                <g id="button-twitter" transform="translate(174.000000, 440.000000)">
                    <path d="M73,30.4206154 C72.4421875,30.6615385 71.8478125,30.8212308 71.228125,30.8987692 C71.865625,30.524 72.3521875,29.9350769 72.5809375,29.2252308 C71.9865625,29.5741538 71.3303125,29.8206154 70.6309375,29.9581538 C70.0665625,29.3664615 69.2621875,29 68.3846875,29 C66.6821875,29 65.3115625,30.3606154 65.3115625,32.0286154 C65.3115625,32.2686154 65.3321875,32.4993846 65.3828125,32.7190769 C62.82625,32.5963077 60.5640625,31.3898462 59.044375,29.552 C58.7790625,30.0052308 58.6234375,30.524 58.6234375,31.0824615 C58.6234375,32.1310769 59.171875,33.0606154 59.989375,33.5987692 C59.4953125,33.5895385 59.010625,33.4483077 58.6,33.2258462 C58.6,33.2350769 58.6,33.2470769 58.6,33.2590769 C58.6,34.7304615 59.6659375,35.9526154 61.06375,36.2341538 C60.8134375,36.3015385 60.540625,36.3338462 60.2575,36.3338462 C60.060625,36.3338462 59.861875,36.3227692 59.6753125,36.2821538 C60.07375,37.4812308 61.204375,38.3627692 62.54875,38.3913846 C61.5025,39.1972308 60.1740625,39.6827692 58.7359375,39.6827692 C58.48375,39.6827692 58.241875,39.6716923 58,39.6412308 C59.3621875,40.5061538 60.9765625,41 62.7175,41 C68.37625,41 71.47,36.3846154 71.47,32.384 C71.47,32.2501538 71.4653125,32.1209231 71.45875,31.9926154 C72.0690625,31.5661538 72.581875,31.0335385 73,30.4206154 Z" id="Shape"></path>
                </g>
            </g>
        </g>
    </g>
</svg>