<?xml version="1.0" encoding="utf-8"?>
<!-- Generator: Adobe Illustrator 23.0.1, SVG Export Plug-In . SVG Version: 6.00 Build 0)  -->
<svg version="1.1" id="レイヤー_1" xmlns="http://www.w3.org/2000/svg" xmlns:xlink="http://www.w3.org/1999/xlink" x="0px"
	 y="0px" viewBox="0 0 16 16" style="enable-background:new 0 0 16 16;" xml:space="preserve">
<style type="text/css">
	.st0{display:none;}
	.st1{display:inline;fill:#FFFFFF;stroke:#FFFFFF;stroke-width:0.35;}
	.st2{fill:#FFFFFF;stroke:#FFFFFF;stroke-width:0.35;}
</style>
<g class="st0">
	<path id="Shape" class="st1" d="M9.4,7.9H6.6C6.5,7.9,6.4,8,6.4,8.1v6.4c0,0.1,0.1,0.2,0.2,0.2h2.8c0.1,0,0.2-0.1,0.2-0.2V8.1
		C9.6,8,9.5,7.9,9.4,7.9z M9.1,14.3H6.8v-6h2.3V14.3z"/>
	<path class="st1" d="M14.2,5.6h-2.8c-0.1,0-0.2,0.1-0.2,0.2v8.8c0,0.1,0.1,0.2,0.2,0.2h2.8c0.1,0,0.2-0.1,0.2-0.2V5.8
		C14.4,5.7,14.3,5.6,14.2,5.6z M14,14.3h-2.3V6H14V14.3z"/>
	<path class="st1" d="M4.5,8.3H1.8c-0.1,0-0.2,0.1-0.2,0.2v6c0,0.1,0.1,0.2,0.2,0.2h2.8c0.1,0,0.2-0.1,0.2-0.2v-6
		C4.8,8.4,4.7,8.3,4.5,8.3z M4.3,14.3H2V8.8h2.3V14.3z"/>
	<path class="st1" d="M15.1,1.5c-0.1-0.1-0.2-0.1-0.3,0l-2.9,2.9l-1.1-1.1c-0.1-0.1-0.2-0.1-0.3,0L7.1,6.6L4.7,4.3
		c-0.1-0.1-0.2-0.1-0.3,0L0.9,7.7C0.9,7.8,0.8,7.9,0.9,7.9C0.9,8,0.9,8.1,1,8.1c0.1,0,0.2,0,0.2-0.1l3.3-3.3l2.4,2.4
		c0.1,0.1,0.2,0.1,0.3,0l3.3-3.3l1.1,1.1C11.7,5,11.9,5,12,4.9l3.1-3.1C15.2,1.7,15.2,1.6,15.1,1.5z"/>
</g>
<g class="st0">
	<path class="st1" d="M6.6,14.8c-0.1,0-0.2-0.1-0.2-0.2V8.1c0-0.1,0.1-0.2,0.2-0.2h2.8c0.1,0,0.2,0.1,0.2,0.2v6.4
		c0,0.1-0.1,0.2-0.2,0.2H6.6z M6.9,14.3l2.3,0l0-6l-2.3,0V14.3z"/>
	<path class="st1" d="M11.5,14.8c-0.1,0-0.2-0.1-0.2-0.2V5.8c0-0.1,0.1-0.2,0.2-0.2h2.8c0.1,0,0.2,0.1,0.2,0.2v8.8
		c0,0.1-0.1,0.2-0.2,0.2H11.5z M11.7,14.3l2.3,0L14,6l-2.3,0V14.3z"/>
	<path class="st1" d="M1.8,14.8c-0.1,0-0.2-0.1-0.2-0.2v-6c0-0.1,0.1-0.2,0.2-0.2h2.8c0.1,0,0.2,0.1,0.2,0.2v6
		c0,0.1-0.1,0.2-0.2,0.2H1.8z M2,14.3l2.3,0l0-5.5L2,8.8V14.3z"/>
	<path class="st1" d="M1,8.1C0.9,8.1,0.9,8,0.9,7.9c0-0.1,0-0.2,0.1-0.2l3.5-3.5c0,0,0.1-0.1,0.2-0.1s0.1,0,0.2,0.1l2.4,2.4l3.3-3.3
		c0,0,0.1-0.1,0.2-0.1c0.1,0,0.1,0,0.2,0.1l1.1,1.1l2.9-2.9c0,0,0.1-0.1,0.2-0.1c0.1,0,0.1,0,0.2,0.1c0.1,0.1,0.1,0.2,0,0.3L12,4.9
		c0,0-0.1,0.1-0.2,0.1s-0.1,0-0.2-0.1l-1.1-1.1L7.2,7.1c0,0-0.1,0.1-0.2,0.1C7,7.2,7,7.2,6.9,7.1L4.5,4.8L1.3,8
		C1.2,8.1,1.2,8.1,1,8.1L1,8.1z"/>
</g>
<g>
	<path class="st2" d="M6.6,14.8c-0.1,0-0.2-0.1-0.2-0.2V8.1c0-0.1,0.1-0.2,0.2-0.2h2.8c0.1,0,0.2,0.1,0.2,0.2v6.4
		c0,0.1-0.1,0.2-0.2,0.2H6.6z M6.9,8.3l0,6l2.3,0l0-6L6.9,8.3z"/>
	<path class="st2" d="M11.5,14.8c-0.1,0-0.2-0.1-0.2-0.2V5.8c0-0.1,0.1-0.2,0.2-0.2h2.8c0.1,0,0.2,0.1,0.2,0.2v8.8
		c0,0.1-0.1,0.2-0.2,0.2H11.5z M11.7,6l0,8.3l2.3,0L14,6L11.7,6z"/>
	<path class="st2" d="M1.8,14.8c-0.1,0-0.2-0.1-0.2-0.2v-6c0-0.1,0.1-0.2,0.2-0.2h2.8c0.1,0,0.2,0.1,0.2,0.2v6
		c0,0.1-0.1,0.2-0.2,0.2H1.8z M2,8.8l0,5.5l2.3,0l0-5.5L2,8.8z"/>
	<path class="st2" d="M1,8.1C0.9,8.1,0.9,8,0.9,7.9c0-0.1,0-0.2,0.1-0.2l3.5-3.5c0,0,0.1-0.1,0.2-0.1c0.1,0,0.1,0,0.2,0.1l2.4,2.4
		l3.3-3.3c0,0,0.1-0.1,0.2-0.1s0.1,0,0.2,0.1l1.1,1.1l2.9-2.9c0,0,0.1-0.1,0.2-0.1s0.1,0,0.2,0.1c0.1,0.1,0.1,0.2,0,0.3L12,4.9
		c0,0-0.1,0.1-0.2,0.1s-0.1,0-0.2-0.1l-1.1-1.1L7.2,7.1c0,0-0.1,0.1-0.2,0.1S7,7.2,6.9,7.1L4.5,4.8L1.3,8C1.2,8.1,1.2,8.1,1,8.1
		L1,8.1z"/>
</g>
</svg>
