<?xml version="1.0" encoding="UTF-8"?>
<svg width="16px" height="16px" viewBox="0 0 16 16" version="1.1" xmlns="http://www.w3.org/2000/svg" xmlns:xlink="http://www.w3.org/1999/xlink">
    <!-- Generator: Sketch 52.5 (67469) - http://www.bohemiancoding.com/sketch -->
    <title>icon/category</title>
    <desc>Created with Sketch.</desc>
    <g id="Design-desktop" stroke="none" stroke-width="1" fill="none" fill-rule="evenodd">
        <g id="tasks" transform="translate(-262.000000, -546.000000)">
            <g id="task" transform="translate(233.000000, 448.000000)">
                <g id="tag-sample" transform="translate(20.000000, 91.000000)">
                    <g id="icon/category" transform="translate(8.000000, 6.000000)">
                        <g id="tag">
                            <rect id="Rectangle" fill-opacity="0" fill="#000000" x="0" y="0" width="17" height="17"></rect>
                            <path d="M4.40178148,2.68214286 C5.35410751,2.68214286 6.124418,3.45152721 6.1214201,4.40178571 C6.1214201,5.35117382 5.35209531,6.12142857 4.40178148,6.12142857 C3.45239566,6.12142857 2.68214286,5.35210183 2.68214286,4.40178571 C2.68214286,3.45239761 3.45146764,2.68214286 4.40178148,2.68214286 Z M4.40178148,5.42991461 C4.97048074,5.42991461 5.42990764,4.96962781 5.42990764,4.40178571 C5.42990764,3.8349721 4.96859353,3.37365682 4.40178148,3.37365682 C3.83496943,3.37365682 3.37365532,3.8349721 3.37365532,4.40178571 C3.37365532,4.96859933 3.83496943,5.42991461 4.40178148,5.42991461 Z" id="Shape" stroke="#FFFFFF" stroke-width="0.1" fill="#FFFFFF" fill-rule="nonzero"></path>
                            <path d="M8.33899754,1.75061672 L16.1246411,9.60392677 L9.53322298,16.1246479 L1.7464549,8.3409149 C1.41171761,8.00324132 1.22821459,7.56203624 1.19464502,7.0706441 L1.16428571,3.80982143 C1.16428571,3.08058522 1.43508845,2.41049076 1.93678508,1.93896647 C2.41049076,1.43508845 3.08058522,1.16428571 3.81033398,1.16428834 L7.06714286,1.19767857 C7.56117734,1.19767857 8.01620266,1.39416591 8.33899536,1.75061453 Z M9.53843634,15.1323685 L15.1675018,9.57356962 L7.82410895,2.23017677 C7.60753846,2.01360628 7.33345834,1.89571429 7.03631537,1.89571207 L3.80982143,1.86535714 C3.29250561,1.86535714 2.79650912,2.07670156 2.42286798,2.4502814 C2.07262906,2.83097587 1.86535714,3.32811082 1.86535493,3.80935108 L1.89571429,7.03678571 C1.89571429,7.33345834 2.01360628,7.60753846 2.23017677,7.82410895 L9.53843634,15.1323685 Z" id="Shape" stroke="#FFFFFF" stroke-width="0.1" fill="#FFFFFF" fill-rule="nonzero"></path>
                        </g>
                    </g>
                </g>
            </g>
        </g>
    </g>
</svg>