<?xml version="1.0" encoding="UTF-8"?>
<svg width="56px" height="56px" viewBox="0 0 56 56" version="1.1" xmlns="http://www.w3.org/2000/svg" xmlns:xlink="http://www.w3.org/1999/xlink">
    <!-- Generator: Sketch 52.1 (67048) - http://www.bohemiancoding.com/sketch -->
    <title>icon/category</title>
    <desc>Created with Sketch.</desc>
    <g id="icon/category" stroke="none" stroke-width="1" fill="none" fill-rule="evenodd">
        <g id="tag">
            <rect id="Rectangle" fill-opacity="0" fill="#000000" x="0" y="0" width="56" height="56"></rect>
            <path d="M14.499986,8.95 C17.5736801,8.95 20.0596475,11.4329785 20.0499721,14.5 C20.0499721,17.5640768 17.5670503,20.05 14.499986,20.05 C11.4359169,20.05 8.95,17.5670719 8.95,14.5 C8.95,11.4359232 11.4329218,8.95 14.499986,8.95 Z M14.499986,18.0014834 C16.4367467,18.0014834 18.0014604,16.433841 18.0014604,14.5 C18.0014604,12.569499 16.430482,10.9985166 14.499986,10.9985166 C12.5694901,10.9985166 10.9985116,12.569499 10.9985116,14.5 C10.9985116,16.430501 12.5694901,18.0014834 14.499986,18.0014834 Z" id="Shape" stroke="#FFFFFF" stroke-width="0.1" fill="#FFFFFF" fill-rule="nonzero"></path>
            <path d="M27.3862617,5.84555323 L53.0353553,31.5553553 L31.4846516,53.0353622 L5.83449061,27.3952006 C4.75215823,26.3033741 4.15851664,24.8760532 4.05000217,23.2904655 L3.95,12.55 C3.95,10.1785204 4.82974524,8.00161325 6.46357079,6.46575218 C8.00161325,4.82974524 10.1785204,3.95 12.5505126,3.95000263 L23.28,4.06 C24.8762568,4.06 26.3448697,4.69453522 27.3862612,5.84555267 Z M31.4200671,50.0093564 L50.0446447,31.4553553 L25.8546447,7.26535534 C25.1201054,6.53081611 24.1882718,6.13 23.1795297,6.12999779 L12.55,6.03 C10.8150521,6.03 9.15214488,6.7385658 7.89679655,7.99385283 C6.72419031,9.26842483 6.03,10.9334177 6.02999779,12.5495297 L6.13,23.18 C6.13,24.1882718 6.53081611,25.1201054 7.26535534,25.8546447 L31.4200671,50.0093564 Z" id="Shape" stroke="#FFFFFF" stroke-width="0.1" fill="#FFFFFF" fill-rule="nonzero"></path>
        </g>
    </g>
</svg>