<?xml version="1.0" encoding="UTF-8"?>
<svg width="19px" height="19px" viewBox="0 0 19 19" version="1.1" xmlns="http://www.w3.org/2000/svg" xmlns:xlink="http://www.w3.org/1999/xlink">
    <!-- Generator: Sketch 52.1 (67048) - http://www.bohemiancoding.com/sketch -->
    <title>icon/pen</title>
    <desc>Created with Sketch.</desc>
    <g id="Design-desktop" stroke="none" stroke-width="1" fill="none" fill-rule="evenodd">
        <g id="tasks" transform="translate(-387.000000, -417.000000)">
            <g id="task" transform="translate(233.000000, 396.000000)">
                <g id="index" transform="translate(19.000000, 12.000000)">
                    <g id="icon/pen" transform="translate(134.000000, 8.000000)">
                        <g id="010-pen">
                            <rect id="Rectangle" fill-opacity="0" fill="#FFFFFF" x="0" y="0" width="20" height="20"></rect>
                            <path d="M17.7579979,4.1793254 L17.8456374,4.2669649 C18.0163815,4.43770897 18.0163815,4.71449554 17.8456374,4.88519675 L16.946875,5.69717284 C17.1524952,5.99604911 17.2087953,6.39699177 17.1062901,6.82470737 C17.0003494,7.26665891 16.7354459,7.71566096 16.3605163,8.09062699 L13.2903396,11.1608037 C13.2073248,11.2438602 13.0963694,11.2888388 12.9812281,11.2888388 C12.8661024,11.2888388 12.7551831,11.2438703 12.6721232,11.1608104 C12.5014236,10.9900679 12.5014236,10.7132915 12.6721299,10.5425852 L15.74232,7.47239515 C16.0729126,7.14180246 16.2693875,6.74147376 16.2827705,6.44806373 L6.19555758,16.5352766 C5.45794499,17.2728175 4.5897392,17.8354307 3.61536123,18.2072559 L2.31545761,18.7033078 C2.27260113,18.7196521 2.22745849,18.7288703 2.23059775,18.7092715 L1.74265994,19.1972093 C1.65964516,19.2802658 1.54868978,19.3252444 1.43354845,19.3252444 C1.31843925,19.3252444 1.20752168,19.2802879 1.12444363,19.1972515 C0.953743942,19.026509 0.953743942,18.7497326 1.12444835,18.5790282 L1.59070677,18.140125 C1.59304159,18.0937368 1.60214315,18.048767 1.61840613,18.0061655 L2.11445154,16.7062787 C2.48625839,15.7318549 3.0488537,14.863658 3.78639907,14.1261126 L15.4365183,2.47606435 C15.6072609,2.30536466 15.8840372,2.30536466 16.0547435,2.476071 L16.142383,2.56371051 L17.5816144,1.12447913 C17.752357,0.953779447 18.0291333,0.953779447 18.1998377,1.1244839 L19.1972563,2.12183144 C19.3679345,2.29255254 19.3679213,2.56935922 19.1972226,2.74010068 L17.7579979,4.1793254 Z M5.91687884,15.5775627 L4.74414338,14.4048272 L4.40463075,14.7443091 C3.75460087,15.394339 3.25896777,16.1591866 2.93125729,17.0179874 L2.70142037,17.6202526 L3.30368831,17.3904146 C4.16251154,17.062709 4.92736143,16.5670801 5.57739932,15.9170422 L5.91687884,15.5775627 Z M6.53503977,14.9593664 L16.9183436,4.57609775 L15.7456091,3.40333075 L5.36230662,13.7866332 L6.53503977,14.9593664 Z M17.1397661,3.56109355 L18.2698926,2.430967 L17.8907059,2.0517803 L16.7605794,3.18190685 L17.1397661,3.56109355 Z" id="Shape" stroke="#22556E" stroke-width="0.15" fill="#22556E" fill-rule="nonzero"></path>
                        </g>
                    </g>
                </g>
            </g>
        </g>
    </g>
</svg>