<?xml version="1.0" encoding="UTF-8"?>
<svg width="56px" height="56px" viewBox="0 0 56 56" version="1.1" xmlns="http://www.w3.org/2000/svg" xmlns:xlink="http://www.w3.org/1999/xlink">
    <!-- Generator: Sketch 52.1 (67048) - http://www.bohemiancoding.com/sketch -->
    <title>icon/taskpercentage</title>
    <desc>Created with Sketch.</desc>
    <g id="icon/taskpercentage" stroke="none" stroke-width="1" fill="none" fill-rule="evenodd">
        <g>
            <rect id="Rectangle" fill-opacity="0" fill="#D8D8D8" x="0" y="0" width="56" height="56"></rect>
            <path d="M32.830589,27.577834 L23.1589016,27.577834 C22.7139512,27.577834 22.3529142,27.9382243 22.3529142,28.3836597 L22.3529142,50.9504993 C22.3529142,51.3956113 22.7139512,51.756325 23.1589016,51.756325 L32.830589,51.756325 C33.2755394,51.756325 33.6365765,51.3956113 33.6365765,50.9504993 L33.6365765,28.3836597 C33.6365765,27.9382243 33.2755394,27.577834 32.830589,27.577834 Z M32.0244399,50.1446735 L23.9650507,50.1446735 L23.9650507,29.1893238 L32.0244399,29.1893238 L32.0244399,50.1446735 Z" id="Shape" stroke="#FFFFFF" stroke-width="0.35" fill="#FFFFFF" fill-rule="nonzero"></path>
            <path d="M49.75584,19.517798 L40.0841525,19.517798 C39.6390405,19.517798 39.2784885,19.8789968 39.2784885,20.3237854 L39.2784885,50.9504993 C39.2784885,51.3956113 39.6390405,51.756325 40.0841525,51.756325 L49.75584,51.756325 C50.200952,51.756325 50.5619891,51.3956113 50.5619891,50.9504993 L50.5619891,20.3237854 C50.5619891,19.8789968 50.200952,19.517798 49.75584,19.517798 Z M48.9498526,50.1446735 L40.8901399,50.1446735 L40.8901399,21.1299346 L48.9498526,21.1299346 L48.9498526,50.1446735 Z" id="Shape" stroke="#FFFFFF" stroke-width="0.35" fill="#FFFFFF" fill-rule="nonzero"></path>
            <path d="M15.9054998,29.1893238 L6.23365066,29.1893238 C5.78870033,29.1893238 5.42766325,29.5503609 5.42766325,29.9953112 L5.42766325,50.9504993 C5.42766325,51.3956113 5.78870033,51.756325 6.23365066,51.756325 L15.9054998,51.756325 C16.3506118,51.756325 16.7110022,51.3956113 16.7110022,50.9504993 L16.7110022,29.9953112 C16.7110022,29.5503609 16.3506118,29.1893238 15.9054998,29.1893238 Z M15.0995124,50.1446735 L7.03963808,50.1446735 L7.03963808,30.8012986 L15.0995124,30.8012986 L15.0995124,50.1446735 Z" id="Shape" stroke="#FFFFFF" stroke-width="0.35" fill="#FFFFFF" fill-rule="nonzero"></path>
            <path d="M52.7435715,5.24656585 C52.4286139,4.93176995 51.9189906,4.93176995 51.6038713,5.24656585 L41.2928911,15.557546 L37.4302954,11.6941419 C37.1153378,11.3795077 36.6053911,11.3795077 36.2905952,11.6941419 L24.7708764,23.2138607 L16.474784,14.9182533 C16.1601498,14.6032957 15.6502031,14.6032957 15.3355689,14.9182533 L3.24608079,27.0077413 C3.03654023,27.2100062 2.95230364,27.5099273 3.02651594,27.79174 C3.1000815,28.0732293 3.31980803,28.2932792 3.60178237,28.3668447 C3.88343336,28.4408953 4.1831928,28.3566587 4.38561929,28.1474416 L15.9054998,16.6278844 L24.2012689,24.9236535 C24.5159031,25.238126 25.0260115,25.238126 25.3406457,24.9236535 L36.8603645,13.4039347 L40.7231219,17.2666921 C41.0384028,17.5811647 41.5481879,17.5811647 41.8629838,17.2666921 L52.7435715,6.38626606 C53.058044,6.07147016 53.058044,5.56136175 52.7435715,5.24656585 Z" id="Shape" stroke="#FFFFFF" stroke-width="0.35" fill="#FFFFFF" fill-rule="nonzero"></path>
        </g>
    </g>
</svg>