<?xml version="1.0" encoding="UTF-8"?>
<svg width="131px" height="36px" viewBox="0 0 131 36" version="1.1" xmlns="http://www.w3.org/2000/svg" xmlns:xlink="http://www.w3.org/1999/xlink">
    <!-- Generator: Sketch 52.1 (67048) - http://www.bohemiancoding.com/sketch -->
    <title>logo</title>
    <desc>Created with Sketch.</desc>
    <g id="logo" stroke="none" stroke-width="1" fill="none" fill-rule="evenodd">
        <g id="アートボード-2" transform="translate(0.000000, 11.000000)" fill="#FFFFFF" fill-rule="nonzero">
            <path d="M70.19,4 L70,4.24 L70.19,4 Z" id="Shape"></path>
            <path d="M70.25,4 L70,4.31 C70.11,4.15 70.19,4.07 70.25,4 Z" id="Shape"></path>
            <path d="M70.16,4 L70,4.19 L70.16,4 Z" id="Shape"></path>
            <path d="" id="Shape"></path>
            <path d="M69.0417652,0.574949174 C68.0962647,-0.192869878 66.7279185,-0.191507391 65.7840069,0.578192983 C64.8400953,1.34789336 64.5878601,2.66801282 65.1834854,3.72113304 L59.1861593,11.0665893 L50.916513,0.888913468 C50.5367587,0.436661243 49.97094,0.174698005 49.3738675,0.174698005 C48.776795,0.174698005 48.2109763,0.436661243 47.831222,0.888913468 L39.5682393,11.0665893 L31.2586109,0.888913468 C30.8788204,0.439021639 30.3145391,0.178655368 29.7192972,0.178655368 C29.1240552,0.178655368 28.5597739,0.439021639 28.1799835,0.888913468 L19.9103372,11.0665893 L11.6007087,0.888913468 C11.2209182,0.439021639 10.6566369,0.178655368 10.061395,0.178655368 C9.46615306,0.178655368 8.90187176,0.439021639 8.52208129,0.888913468 L0.219116504,11.0665893 C-0.00347980269,11.338832 -0.0612014122,11.7069603 0.0676948467,12.032304 C0.196591106,12.3576477 0.492522825,12.5907792 0.84401539,12.6438803 C1.19550796,12.6969813 1.54916128,12.5619845 1.77175759,12.2897419 L10.0414039,2.11860695 L18.3510324,12.2897419 C18.7308228,12.7396337 19.2951042,13 19.8903461,13 C20.485588,13 21.0498693,12.7396337 21.4296598,12.2897419 L29.6993061,2.11860695 L38.0089346,12.2897419 C38.388725,12.7396337 38.9530063,13 39.5482483,13 C40.1434902,13 40.7077715,12.7396337 41.087562,12.2897419 L49.3572083,2.11860695 L57.6668367,12.2897419 C58.0466272,12.7396337 58.6109085,13 59.2061504,13 C59.8013924,13 60.3656737,12.7396337 60.7454641,12.2897419 L66.7427902,4.9442856 C67.9135826,5.27451178 69.1589268,4.74653236 69.7166401,3.68348425 C70.2743534,2.62043615 69.988949,1.31869058 69.0351015,0.574949174 L69.0417652,0.574949174 Z M68.9684646,3.73421488 C68.5411451,4.30140803 67.831743,4.59341178 67.1200848,4.49504399 C66.4084267,4.39667619 65.8087651,3.92372923 65.5576392,3.26275907 C65.3065133,2.60178892 65.4442398,1.85891045 65.916492,1.3271553 C66.6073997,0.549194367 67.8007445,0.445287645 68.6203766,1.0917231 C69.4400087,1.73815855 69.5936354,2.90440796 68.9684646,3.73421488 Z" id="Shape"></path>
            <path d="M70,3.13 L70.1,3 L70,3.13 Z" id="Shape"></path>
            <polygon id="Shape" points="66 1 66 1.01 66 1"></polygon>
            <path d="M52.0621891,22.9999997 C51.653552,23.0002782 51.2810351,22.7762967 51.1043524,22.4240859 C50.9276697,22.0718751 50.9782004,21.6539881 51.2342798,21.3495913 L57.0862542,14.3827034 C57.2651766,14.1692585 57.5261843,14.033329 57.8108211,14.0053582 C58.0954579,13.9773874 58.3799386,14.0597126 58.6005498,14.233896 C58.8214592,14.4001414 58.9631607,14.6443108 58.9937709,14.9114651 C59.0243811,15.1786194 58.9413288,15.4463187 58.7633012,15.6543295 L52.8900984,22.6212175 C52.6884575,22.8609045 52.3839564,23.0002188 52.0621891,22.9999997 Z" id="Shape"></path>
            <polygon id="Shape" points="76.884646 12 76 12 76 1 76.884646 1 76.884646 5.96627219 83.115354 5.96627219 83.115354 1 84 1 84 12 83.115354 12 83.115354 6.79289941 76.9164678 6.79289941"></polygon>
            <path d="M94.5371669,1 L95.3997195,1 L100,12 L98.9761571,12 L97.5105189,8.4591716 L92.3842917,8.4591716 L90.9817672,12 L90,12 L94.5371669,1 Z M97.2370266,7.73017751 L94.9368864,2.02840237 L92.6227209,7.73017751 L97.2370266,7.73017751 Z" id="Shape"></path>
            <path d="M112,9.01893491 C112,10.9715976 110.758721,12 108.194767,12 L105,12 L105,1 L107.92345,1 C109.849806,1 111.565891,1.55976331 111.565891,3.6035503 C111.661822,4.85080772 110.769906,5.96960271 109.49031,6.20710059 C110.758721,6.36982249 112,7.05325444 112,9.04497041 L112,9.01893491 Z M110.643411,3.69467456 C110.643411,2.39289941 109.687016,1.74201183 107.794574,1.74201183 L105.881783,1.74201183 L105.881783,5.84911243 L108.594961,5.84911243 C109.168279,5.83462395 109.710366,5.59532689 110.094878,5.18699456 C110.479389,4.77866222 110.672733,4.23696813 110.629845,3.68816568 L110.643411,3.69467456 Z M105.895349,11.2254438 L108.018411,11.2254438 C109.524225,11.2254438 111.043605,10.9846154 111.043605,8.93431953 C111.043605,7.22899408 109.822674,6.58461538 108.242248,6.58461538 L105.895349,6.58461538 L105.895349,11.2254438 Z" id="Shape"></path>
            <polygon id="Shape" points="118 12 117 12 117 1 118 1"></polygon>
            <polygon id="Shape" points="127.546988 12 127.546988 1.80059172 124 1.80059172 124 1 132 1 132 1.80059172 128.440161 1.80059172 128.440161 12"></polygon>
        </g>
    </g>
</svg>