<?xml version="1.0" encoding="UTF-8"?>
<svg width="1366px" height="500px" viewBox="0 0 1366 500" version="1.1" xmlns="http://www.w3.org/2000/svg" xmlns:xlink="http://www.w3.org/1999/xlink">
    <!-- Generator: Sketch 52.1 (67048) - http://www.bohemiancoding.com/sketch -->
    <title>logo-bg</title>
    <desc>Created with Sketch.</desc>
    <defs>
        <rect id="path-1" x="0" y="0" width="1366" height="768"></rect>
    </defs>
    <g id="Design-desktop" stroke="none" stroke-width="1" fill="none" fill-rule="evenodd">
        <g id="Sign-in" transform="translate(0.000000, -233.000000)">
            <g id="logo-bg">
                <mask id="mask-2" fill="white">
                    <use xlink:href="#path-1"></use>
                </mask>
                <g id="Mask"></g>
                <g id="logo" mask="url(#mask-2)">
                    <g transform="translate(-102.000000, -5.000000)" id="アートボード-2">
                        <g transform="translate(0.000000, 238.638889)">
                            <path d="M1522.21214,86.7777778 L1518.0916,91.9844444 L1522.21214,86.7777778 Z" id="Shape" fill="#FFFFFF" fill-rule="nonzero"></path>
                            <path d="M1523.51336,86.7777778 L1518.0916,93.5030556 C1520.47718,90.0319444 1522.21214,88.2963889 1523.51336,86.7777778 Z" id="Shape" fill="#FFFFFF" fill-rule="nonzero"></path>
                            <path d="M1521.56153,86.7777778 L1518.0916,90.8997222 L1521.56153,86.7777778 Z" id="Shape" fill="#FFFFFF" fill-rule="nonzero"></path>
                            <path d="" id="Shape" fill="#FFFFFF" fill-rule="nonzero"></path>
                            <path d="M1497.31034,12.4732029 C1476.80525,-4.18420485 1447.1299,-4.15464645 1426.65926,12.5435755 C1406.18863,29.2417975 1400.7184,57.8810559 1413.63574,80.727914 L1283.57159,240.083508 L1104.22758,19.2844838 C1095.99184,9.47312307 1083.72092,3.78997617 1070.7722,3.78997617 C1057.82347,3.78997617 1045.55255,9.47312307 1037.31681,19.2844838 L858.117313,240.083508 L677.90621,19.2844838 C669.669685,9.52433055 657.432103,3.87582896 644.523078,3.87582896 C631.614053,3.87582896 619.376471,9.52433055 611.139947,19.2844838 L431.795938,240.083508 L251.584835,19.2844838 C243.34831,9.52433055 231.110729,3.87582896 218.201703,3.87582896 C205.292678,3.87582896 193.055097,9.52433055 184.818572,19.2844838 L4.75198463,240.083508 C-0.0754665607,245.98966 -1.32727643,253.976 1.46809969,261.034151 C4.26347581,268.092301 10.6813538,273.149961 18.3041811,274.301958 C25.9270084,275.453956 33.5966963,272.525276 38.4241475,266.619123 L217.768156,45.9620008 L397.979259,266.619123 C406.215784,276.379276 418.453366,282.027778 431.362391,282.027778 C444.271416,282.027778 456.508998,276.379276 464.745522,266.619123 L644.089531,45.9620008 L824.300634,266.619123 C832.537159,276.379276 844.77474,282.027778 857.683766,282.027778 C870.592791,282.027778 882.830372,276.379276 891.066897,266.619123 L1070.41091,45.9620008 L1250.62201,266.619123 C1258.85853,276.379276 1271.09612,282.027778 1284.00514,282.027778 C1296.91417,282.027778 1309.15175,276.379276 1317.38827,266.619123 L1447.45242,107.263529 C1472.84342,114.427603 1499.85123,102.973383 1511.94637,79.9111445 C1524.04151,56.8489065 1517.85194,28.6082595 1497.16583,12.4732029 L1497.31034,12.4732029 Z M1495.72067,81.0117173 C1486.45338,93.3166576 1471.06856,99.6515167 1455.63482,97.517482 C1440.20107,95.3834474 1427.1962,85.1231257 1421.75002,70.7837454 C1416.30385,56.4443651 1419.29073,40.3280294 1429.53247,28.7918968 C1444.5162,11.9144667 1470.3963,9.66026808 1488.17168,23.6843261 C1505.94706,37.7083841 1509.27876,63.0095171 1495.72067,81.0117173 Z" id="Shape" fill="#FFFFFF" fill-rule="nonzero"></path>
                            <path d="M1518.0916,67.9036111 L1520.26031,65.0833333 L1518.0916,67.9036111 Z" id="Shape" fill="#FFFFFF" fill-rule="nonzero"></path>
                            <polygon id="Shape" fill="#FFFFFF" fill-rule="nonzero" points="1431.34351 21.6944444 1431.34351 21.9113889 1431.34351 21.6944444"></polygon>
                            <path d="M1129.07389,498.972217 C1120.21177,498.978257 1112.13298,494.119103 1108.30126,486.478085 C1104.46954,478.837067 1105.5654,469.771243 1111.119,463.167523 L1238.0309,312.024759 C1241.9112,307.39419 1247.57168,304.445276 1253.7446,303.838465 C1259.91753,303.231654 1266.08707,305.017655 1270.87147,308.796467 C1275.66233,312.403068 1278.73542,317.700187 1279.39926,323.495951 C1280.0631,329.291714 1278.26195,335.099303 1274.40106,339.611982 L1147.02878,490.754746 C1142.65579,495.954623 1136.05206,498.97697 1129.07389,498.972217 Z" id="Shape" fill="#FFFFFF" fill-rule="nonzero"></path>
                            <polygon id="Shape" fill="#FFFFFF" fill-rule="nonzero" points="1667.39908 260.333333 1648.21374 260.333333 1648.21374 21.6944444 1667.39908 21.6944444 1667.39908 129.434961 1802.52459 129.434961 1802.52459 21.6944444 1821.70992 21.6944444 1821.70992 260.333333 1802.52459 260.333333 1802.52459 147.368179 1668.0892 147.368179"></polygon>
                            <path d="M2050.2297,21.6944444 L2068.9359,21.6944444 L2168.70229,260.333333 L2146.49819,260.333333 L2114.71286,183.517028 L2003.54025,183.517028 L1973.12367,260.333333 L1951.83206,260.333333 L2050.2297,21.6944444 Z M2108.78162,167.701907 L2058.89843,44.0050625 L2008.71107,167.701907 L2108.78162,167.701907 Z" id="Shape" fill="#FFFFFF" fill-rule="nonzero"></path>
                            <path d="M2428.94656,195.660782 C2428.94656,238.022715 2402.02692,260.333333 2346.4224,260.333333 L2277.1374,260.333333 L2277.1374,21.6944444 L2340.53832,21.6944444 C2382.31526,21.6944444 2419.53204,33.8381986 2419.53204,78.1770217 C2421.6125,105.235579 2402.26948,129.507214 2374.51886,134.659599 C2402.02692,138.18976 2428.94656,153.016437 2428.94656,196.225608 L2428.94656,195.660782 Z M2399.52618,80.1539119 C2399.52618,51.9126233 2378.78482,37.791979 2337.74339,37.791979 L2296.26065,37.791979 L2296.26065,126.893245 L2355.10141,126.893245 C2367.53497,126.578925 2379.29123,121.387508 2387.63014,112.528965 C2395.96905,103.670422 2400.16209,91.9186696 2399.23198,80.0127055 L2399.52618,80.1539119 Z M2296.55486,243.529767 L2342.59775,243.529767 C2375.25437,243.529767 2408.2052,238.305128 2408.2052,193.825099 C2408.2052,156.829011 2381.72686,142.849573 2347.45211,142.849573 L2296.55486,142.849573 L2296.55486,243.529767 Z" id="Shape" fill="#FFFFFF" fill-rule="nonzero"></path>
                            <polygon id="Shape" fill="#FFFFFF" fill-rule="nonzero" points="2559.0687 260.333333 2537.38168 260.333333 2537.38168 21.6944444 2559.0687 21.6944444"></polygon>
                            <polygon id="Shape" fill="#FFFFFF" fill-rule="nonzero" points="2766.11445 260.333333 2766.11445 39.0628369 2689.19084 39.0628369 2689.19084 21.6944444 2862.68702 21.6944444 2862.68702 39.0628369 2785.48471 39.0628369 2785.48471 260.333333"></polygon>
                        </g>
                    </g>
                </g>
            </g>
        </g>
    </g>
</svg>